<svg width="91" height="26" viewBox="0 0 91 26" fill="none" xmlns="http://www.w3.org/2000/svg">
<path d="M29.5735 10V9.48L34.4485 1.368H31.6275C31.3761 1.368 31.1768 1.42 31.0295 1.524C30.8821 1.61933 30.7738 1.74933 30.7045 1.914C30.6351 2.07 30.5875 2.24333 30.5615 2.434L30.4965 2.993H29.8205L29.8855 0.717999H36.0475V1.251L31.1595 9.35H34.4355C34.6955 9.35 34.8991 9.30233 35.0465 9.207C35.1938 9.103 35.3021 8.973 35.3715 8.817C35.4495 8.65233 35.4971 8.47467 35.5145 8.284L35.5795 7.725H36.2555L36.1905 10H29.5735ZM43.7378 10.13C43.0444 10.13 42.4681 10.0173 42.0088 9.792C41.5494 9.558 41.2071 9.23733 40.9818 8.83C40.7564 8.42267 40.6438 7.946 40.6438 7.4C40.6438 6.906 40.7304 6.49433 40.9038 6.165C41.0771 5.83567 41.3198 5.55833 41.6318 5.333C41.9438 5.10767 42.3078 4.90833 42.7238 4.735C42.5071 4.475 42.3208 4.228 42.1648 3.994C42.0174 3.76 41.9048 3.52167 41.8268 3.279C41.7574 3.03633 41.7228 2.77633 41.7228 2.499C41.7228 2.11767 41.8051 1.784 41.9698 1.498C42.1431 1.212 42.4118 0.990999 42.7758 0.834999C43.1398 0.670333 43.6078 0.588 44.1798 0.588C44.7344 0.588 45.1808 0.674666 45.5188 0.847999C45.8568 1.01267 46.0994 1.23367 46.2468 1.511C46.4028 1.78833 46.4808 2.096 46.4808 2.434C46.4808 2.80667 46.4071 3.12733 46.2598 3.396C46.1124 3.66467 45.8784 3.90733 45.5578 4.124C45.2371 4.34067 44.8124 4.56167 44.2838 4.787L46.6498 7.296C46.7711 6.906 46.8491 6.51167 46.8838 6.113C46.9271 5.71433 46.9488 5.35467 46.9488 5.034V4.527H49.2888V5.073H49.1718C48.9811 5.073 48.7948 5.09467 48.6128 5.138C48.4308 5.17267 48.2704 5.25067 48.1318 5.372C47.9931 5.49333 47.8848 5.68833 47.8068 5.957C47.7288 6.23433 47.6378 6.53767 47.5338 6.867C47.4384 7.18767 47.3171 7.51267 47.1698 7.842L48.3788 9.129C48.4654 9.21567 48.5564 9.285 48.6518 9.337C48.7471 9.38033 48.8684 9.41067 49.0158 9.428C49.1631 9.44533 49.3538 9.454 49.5878 9.454H49.7048V10H47.6248L46.5458 8.856C46.3378 9.09 46.0994 9.30667 45.8308 9.506C45.5621 9.69667 45.2544 9.84833 44.9078 9.961C44.5698 10.0737 44.1798 10.13 43.7378 10.13ZM43.8548 9.402C44.3661 9.402 44.8038 9.30233 45.1678 9.103C45.5318 8.90367 45.8351 8.65233 46.0778 8.349L43.2048 5.268C42.9448 5.41533 42.7151 5.58867 42.5158 5.788C42.3251 5.97867 42.1778 6.20833 42.0738 6.477C41.9698 6.74567 41.9178 7.06633 41.9178 7.439C41.9178 7.75967 41.9611 8.04133 42.0478 8.284C42.1431 8.52667 42.2774 8.73033 42.4508 8.895C42.6241 9.05967 42.8278 9.18533 43.0618 9.272C43.3044 9.35867 43.5688 9.402 43.8548 9.402ZM43.8418 4.293C44.3531 4.06767 44.7301 3.81633 44.9728 3.539C45.2154 3.26167 45.3368 2.89767 45.3368 2.447C45.3368 2.213 45.2978 2.005 45.2198 1.823C45.1418 1.641 45.0118 1.498 44.8298 1.394C44.6564 1.28133 44.4224 1.225 44.1278 1.225C43.7464 1.225 43.4518 1.33767 43.2438 1.563C43.0358 1.78833 42.9318 2.08733 42.9318 2.46C42.9318 2.67667 42.9621 2.88033 43.0228 3.071C43.0834 3.253 43.1788 3.44367 43.3088 3.643C43.4474 3.83367 43.6251 4.05033 43.8418 4.293ZM53.6692 10V9.48L58.5442 1.368H55.7232C55.4718 1.368 55.2725 1.42 55.1252 1.524C54.9778 1.61933 54.8695 1.74933 54.8002 1.914C54.7308 2.07 54.6832 2.24333 54.6572 2.434L54.5922 2.993H53.9162L53.9812 0.717999H60.1432V1.251L55.2552 9.35H58.5312C58.7912 9.35 58.9948 9.30233 59.1422 9.207C59.2895 9.103 59.3978 8.973 59.4672 8.817C59.5452 8.65233 59.5928 8.47467 59.6102 8.284L59.6752 7.725H60.3512L60.2862 10H53.6692ZM0.152691 25V24.454H0.321691C0.512358 24.454 0.685691 24.4367 0.841691 24.402C1.00636 24.3587 1.13636 24.2763 1.23169 24.155C1.33569 24.025 1.38769 23.8343 1.38769 23.583V17.2C1.38769 16.9227 1.34002 16.719 1.24469 16.589C1.14936 16.459 1.01936 16.3723 0.854692 16.329C0.698691 16.2857 0.521025 16.264 0.321691 16.264H0.152691V15.718H6.70469L6.76969 17.993H6.09369L6.02869 17.434C6.01136 17.2433 5.95936 17.07 5.87269 16.914C5.79469 16.7493 5.67336 16.6193 5.50869 16.524C5.35269 16.42 5.14469 16.368 4.88469 16.368H2.70069V19.826H5.83369V20.463H2.70069V24.35H5.20969C5.48702 24.35 5.70802 24.3023 5.87269 24.207C6.04603 24.103 6.17603 23.973 6.26269 23.817C6.35803 23.6523 6.41869 23.4747 6.44469 23.284L6.53569 22.725H7.21169L7.12069 25H0.152691ZM8.2523 25V24.454H8.4213C8.62063 24.454 8.7983 24.4323 8.9543 24.389C9.11897 24.3457 9.24897 24.259 9.3443 24.129C9.43963 23.9903 9.4873 23.7867 9.4873 23.518V17.148C9.4873 16.888 9.4353 16.6973 9.3313 16.576C9.23597 16.446 9.10597 16.3637 8.9413 16.329C8.7853 16.2857 8.61197 16.264 8.4213 16.264H8.2523V15.718H10.6313L15.2853 22.907V17.148C15.2853 16.888 15.2333 16.6973 15.1293 16.576C15.034 16.446 14.904 16.3637 14.7393 16.329C14.5833 16.2857 14.41 16.264 14.2193 16.264H14.0503V15.718H17.3133V16.264H17.1443C16.9536 16.264 16.776 16.2857 16.6113 16.329C16.4466 16.3723 16.3166 16.459 16.2213 16.589C16.126 16.719 16.0783 16.9227 16.0783 17.2V25H15.1553L10.2803 17.512V23.518C10.2803 23.7867 10.328 23.9903 10.4233 24.129C10.5186 24.259 10.6486 24.3457 10.8133 24.389C10.978 24.4323 11.1556 24.454 11.3463 24.454H11.5153V25H8.2523ZM22.8863 25.13C21.881 25.13 21.0447 24.9307 20.3773 24.532C19.7187 24.1333 19.2247 23.5787 18.8953 22.868C18.5747 22.1487 18.4143 21.308 18.4143 20.346C18.4143 19.41 18.5833 18.5867 18.9213 17.876C19.268 17.1567 19.7793 16.5977 20.4553 16.199C21.1313 15.7917 21.9677 15.588 22.9643 15.588C23.6057 15.588 24.1387 15.653 24.5633 15.783C24.988 15.9043 25.3043 16.0777 25.5123 16.303C25.729 16.5197 25.8373 16.7667 25.8373 17.044C25.8373 17.3213 25.7203 17.5423 25.4863 17.707C25.2523 17.8717 24.9663 17.954 24.6283 17.954C24.6283 17.6853 24.572 17.4253 24.4593 17.174C24.3553 16.914 24.1777 16.7017 23.9263 16.537C23.675 16.3637 23.337 16.277 22.9123 16.277C22.1757 16.277 21.582 16.4373 21.1313 16.758C20.6893 17.07 20.3643 17.5293 20.1563 18.136C19.957 18.7427 19.8573 19.4793 19.8573 20.346C19.8573 21.2127 19.9613 21.9493 20.1693 22.556C20.386 23.154 20.7283 23.609 21.1963 23.921C21.673 24.233 22.3057 24.389 23.0943 24.389C23.3457 24.389 23.5883 24.376 23.8223 24.35C24.0563 24.324 24.2643 24.285 24.4463 24.233V22.14C24.4463 21.88 24.3943 21.6893 24.2903 21.568C24.195 21.438 24.065 21.3557 23.9003 21.321C23.7443 21.2777 23.571 21.256 23.3803 21.256H23.3283V20.71H26.7083V21.256H26.6563C26.4917 21.256 26.34 21.2777 26.2013 21.321C26.0713 21.3643 25.963 21.451 25.8763 21.581C25.7983 21.711 25.7593 21.9147 25.7593 22.192V24.532C25.326 24.7313 24.8797 24.883 24.4203 24.987C23.961 25.0823 23.4497 25.13 22.8863 25.13ZM27.4476 25V24.454H27.6166C27.8159 24.454 27.9936 24.4323 28.1496 24.389C28.3143 24.3457 28.4443 24.259 28.5396 24.129C28.6349 23.9903 28.6826 23.7867 28.6826 23.518V17.2C28.6826 16.9227 28.6349 16.719 28.5396 16.589C28.4443 16.459 28.3143 16.3723 28.1496 16.329C27.9936 16.2857 27.8159 16.264 27.6166 16.264H27.4476V15.718H31.2306V16.264H31.0616C30.8709 16.264 30.6933 16.2857 30.5286 16.329C30.3639 16.3723 30.2339 16.459 30.1386 16.589C30.0433 16.719 29.9956 16.9227 29.9956 17.2V23.518C29.9956 23.7867 30.0433 23.9903 30.1386 24.129C30.2339 24.259 30.3639 24.3457 30.5286 24.389C30.6933 24.4323 30.8709 24.454 31.0616 24.454H31.2306V25H27.4476ZM32.2211 25V24.454H32.3901C32.5894 24.454 32.7671 24.4323 32.9231 24.389C33.0877 24.3457 33.2177 24.259 33.3131 24.129C33.4084 23.9903 33.4561 23.7867 33.4561 23.518V17.148C33.4561 16.888 33.4041 16.6973 33.3001 16.576C33.2047 16.446 33.0747 16.3637 32.9101 16.329C32.7541 16.2857 32.5807 16.264 32.3901 16.264H32.2211V15.718H34.6001L39.2541 22.907V17.148C39.2541 16.888 39.2021 16.6973 39.0981 16.576C39.0027 16.446 38.8727 16.3637 38.7081 16.329C38.5521 16.2857 38.3787 16.264 38.1881 16.264H38.0191V15.718H41.2821V16.264H41.1131C40.9224 16.264 40.7447 16.2857 40.5801 16.329C40.4154 16.3723 40.2854 16.459 40.1901 16.589C40.0947 16.719 40.0471 16.9227 40.0471 17.2V25H39.1241L34.2491 17.512V23.518C34.2491 23.7867 34.2967 23.9903 34.3921 24.129C34.4874 24.259 34.6174 24.3457 34.7821 24.389C34.9467 24.4323 35.1244 24.454 35.3151 24.454H35.4841V25H32.2211ZM42.1361 25V24.454H42.3051C42.4958 24.454 42.6691 24.4367 42.8251 24.402C42.9898 24.3587 43.1198 24.2763 43.2151 24.155C43.3191 24.025 43.3711 23.8343 43.3711 23.583V17.2C43.3711 16.9227 43.3234 16.719 43.2281 16.589C43.1328 16.459 43.0028 16.3723 42.8381 16.329C42.6821 16.2857 42.5044 16.264 42.3051 16.264H42.1361V15.718H48.6881L48.7531 17.993H48.0771L48.0121 17.434C47.9948 17.2433 47.9428 17.07 47.8561 16.914C47.7781 16.7493 47.6568 16.6193 47.4921 16.524C47.3361 16.42 47.1281 16.368 46.8681 16.368H44.6841V19.826H47.8171V20.463H44.6841V24.35H47.1931C47.4704 24.35 47.6914 24.3023 47.8561 24.207C48.0294 24.103 48.1594 23.973 48.2461 23.817C48.3414 23.6523 48.4021 23.4747 48.4281 23.284L48.5191 22.725H49.1951L49.1041 25H42.1361ZM50.2357 25V24.454H50.4047C50.5954 24.454 50.7687 24.4367 50.9247 24.402C51.0894 24.3587 51.2194 24.2763 51.3147 24.155C51.4187 24.025 51.4707 23.8343 51.4707 23.583V17.2C51.4707 16.9227 51.423 16.719 51.3277 16.589C51.2324 16.459 51.1024 16.3723 50.9377 16.329C50.7817 16.2857 50.604 16.264 50.4047 16.264H50.2357V15.718H56.7877L56.8527 17.993H56.1767L56.1117 17.434C56.0944 17.2433 56.0424 17.07 55.9557 16.914C55.8777 16.7493 55.7564 16.6193 55.5917 16.524C55.4357 16.42 55.2277 16.368 54.9677 16.368H52.7837V19.826H55.9167V20.463H52.7837V24.35H55.2927C55.57 24.35 55.791 24.3023 55.9557 24.207C56.129 24.103 56.259 23.973 56.3457 23.817C56.441 23.6523 56.5017 23.4747 56.5277 23.284L56.6187 22.725H57.2947L57.2037 25H50.2357ZM58.3353 25V24.454H58.5043C58.695 24.454 58.8683 24.4367 59.0243 24.402C59.189 24.3587 59.319 24.2763 59.4143 24.155C59.5183 24.025 59.5703 23.8343 59.5703 23.583V17.148C59.5703 16.888 59.5183 16.6973 59.4143 16.576C59.319 16.446 59.189 16.3637 59.0243 16.329C58.8683 16.2857 58.695 16.264 58.5043 16.264H58.3353V15.718H61.8323C62.5863 15.718 63.2103 15.8133 63.7043 16.004C64.1983 16.186 64.5666 16.4633 64.8093 16.836C65.052 17.2 65.1733 17.6637 65.1733 18.227C65.1733 18.6863 65.078 19.0763 64.8873 19.397C64.6966 19.709 64.454 19.9603 64.1593 20.151C63.8733 20.3417 63.5743 20.489 63.2623 20.593L65.0433 23.414C65.156 23.5873 65.2643 23.739 65.3683 23.869C65.4723 23.999 65.5763 24.1073 65.6803 24.194C65.793 24.2807 65.9056 24.3457 66.0183 24.389C66.1396 24.4323 66.2696 24.454 66.4083 24.454H66.4473V25H66.2653C65.858 25 65.52 24.987 65.2513 24.961C64.9913 24.9263 64.7746 24.87 64.6013 24.792C64.428 24.7053 64.272 24.584 64.1333 24.428C64.0033 24.272 63.8646 24.0727 63.7173 23.83L61.9623 20.905H60.8833V23.583C60.8833 23.8343 60.931 24.025 61.0263 24.155C61.1303 24.2763 61.2603 24.3587 61.4163 24.402C61.581 24.4367 61.7586 24.454 61.9493 24.454H62.1183V25H58.3353ZM61.7933 20.294C62.3046 20.294 62.7033 20.2203 62.9893 20.073C63.2753 19.917 63.479 19.6917 63.6003 19.397C63.7216 19.0937 63.7823 18.7167 63.7823 18.266C63.7823 17.798 63.7173 17.4253 63.5873 17.148C63.4573 16.862 63.245 16.6583 62.9503 16.537C62.6556 16.407 62.2613 16.342 61.7673 16.342H60.8833V20.294H61.7933ZM66.8666 25V24.454H67.0356C67.2349 24.454 67.4126 24.4323 67.5686 24.389C67.7332 24.3457 67.8632 24.259 67.9586 24.129C68.0539 23.9903 68.1016 23.7867 68.1016 23.518V17.2C68.1016 16.9227 68.0539 16.719 67.9586 16.589C67.8632 16.459 67.7332 16.3723 67.5686 16.329C67.4126 16.2857 67.2349 16.264 67.0356 16.264H66.8666V15.718H70.6496V16.264H70.4806C70.2899 16.264 70.1122 16.2857 69.9476 16.329C69.7829 16.3723 69.6529 16.459 69.5576 16.589C69.4622 16.719 69.4146 16.9227 69.4146 17.2V23.518C69.4146 23.7867 69.4622 23.9903 69.5576 24.129C69.6529 24.259 69.7829 24.3457 69.9476 24.389C70.1122 24.4323 70.2899 24.454 70.4806 24.454H70.6496V25H66.8666ZM71.64 25V24.454H71.809C72.0083 24.454 72.186 24.4323 72.342 24.389C72.5067 24.3457 72.6367 24.259 72.732 24.129C72.8273 23.9903 72.875 23.7867 72.875 23.518V17.148C72.875 16.888 72.823 16.6973 72.719 16.576C72.6237 16.446 72.4937 16.3637 72.329 16.329C72.173 16.2857 71.9997 16.264 71.809 16.264H71.64V15.718H74.019L78.673 22.907V17.148C78.673 16.888 78.621 16.6973 78.517 16.576C78.4217 16.446 78.2917 16.3637 78.127 16.329C77.971 16.2857 77.7977 16.264 77.607 16.264H77.438V15.718H80.701V16.264H80.532C80.3413 16.264 80.1637 16.2857 79.999 16.329C79.8343 16.3723 79.7043 16.459 79.609 16.589C79.5137 16.719 79.466 16.9227 79.466 17.2V25H78.543L73.668 17.512V23.518C73.668 23.7867 73.7157 23.9903 73.811 24.129C73.9063 24.259 74.0363 24.3457 74.201 24.389C74.3657 24.4323 74.5433 24.454 74.734 24.454H74.903V25H71.64ZM86.274 25.13C85.2687 25.13 84.4324 24.9307 83.765 24.532C83.1064 24.1333 82.6124 23.5787 82.283 22.868C81.9624 22.1487 81.802 21.308 81.802 20.346C81.802 19.41 81.971 18.5867 82.309 17.876C82.6557 17.1567 83.167 16.5977 83.843 16.199C84.519 15.7917 85.3554 15.588 86.352 15.588C86.9934 15.588 87.5264 15.653 87.951 15.783C88.3757 15.9043 88.692 16.0777 88.9 16.303C89.1167 16.5197 89.225 16.7667 89.225 17.044C89.225 17.3213 89.108 17.5423 88.874 17.707C88.64 17.8717 88.354 17.954 88.016 17.954C88.016 17.6853 87.9597 17.4253 87.847 17.174C87.743 16.914 87.5654 16.7017 87.314 16.537C87.0627 16.3637 86.7247 16.277 86.3 16.277C85.5634 16.277 84.9697 16.4373 84.519 16.758C84.077 17.07 83.752 17.5293 83.544 18.136C83.3447 18.7427 83.245 19.4793 83.245 20.346C83.245 21.2127 83.349 21.9493 83.557 22.556C83.7737 23.154 84.116 23.609 84.584 23.921C85.0607 24.233 85.6934 24.389 86.482 24.389C86.7334 24.389 86.976 24.376 87.21 24.35C87.444 24.324 87.652 24.285 87.834 24.233V22.14C87.834 21.88 87.782 21.6893 87.678 21.568C87.5827 21.438 87.4527 21.3557 87.288 21.321C87.132 21.2777 86.9587 21.256 86.768 21.256H86.716V20.71H90.096V21.256H90.044C89.8794 21.256 89.7277 21.2777 89.589 21.321C89.459 21.3643 89.3507 21.451 89.264 21.581C89.186 21.711 89.147 21.9147 89.147 22.192V24.532C88.7137 24.7313 88.2674 24.883 87.808 24.987C87.3487 25.0823 86.8374 25.13 86.274 25.13Z" fill="white"/>
</svg>
