<svg width="76" height="29" viewBox="0 0 76 29" fill="none" xmlns="http://www.w3.org/2000/svg">
<path d="M22.5735 10V9.48L27.4485 1.368H24.6275C24.3761 1.368 24.1768 1.42 24.0295 1.524C23.8821 1.61933 23.7738 1.74933 23.7045 1.914C23.6351 2.07 23.5875 2.24333 23.5615 2.434L23.4965 2.993H22.8205L22.8855 0.717999H29.0475V1.251L24.1595 9.35H27.4355C27.6955 9.35 27.8991 9.30233 28.0465 9.207C28.1938 9.103 28.3021 8.973 28.3715 8.817C28.4495 8.65233 28.4971 8.47467 28.5145 8.284L28.5795 7.725H29.2555L29.1905 10H22.5735ZM36.7378 10.13C36.0444 10.13 35.4681 10.0173 35.0088 9.792C34.5494 9.558 34.2071 9.23733 33.9818 8.83C33.7564 8.42267 33.6438 7.946 33.6438 7.4C33.6438 6.906 33.7304 6.49433 33.9038 6.165C34.0771 5.83567 34.3198 5.55833 34.6318 5.333C34.9438 5.10767 35.3078 4.90833 35.7238 4.735C35.5071 4.475 35.3208 4.228 35.1648 3.994C35.0174 3.76 34.9048 3.52167 34.8268 3.279C34.7574 3.03633 34.7228 2.77633 34.7228 2.499C34.7228 2.11767 34.8051 1.784 34.9698 1.498C35.1431 1.212 35.4118 0.990999 35.7758 0.834999C36.1398 0.670333 36.6078 0.588 37.1798 0.588C37.7344 0.588 38.1808 0.674666 38.5188 0.847999C38.8568 1.01267 39.0994 1.23367 39.2468 1.511C39.4028 1.78833 39.4808 2.096 39.4808 2.434C39.4808 2.80667 39.4071 3.12733 39.2598 3.396C39.1124 3.66467 38.8784 3.90733 38.5578 4.124C38.2371 4.34067 37.8124 4.56167 37.2838 4.787L39.6498 7.296C39.7711 6.906 39.8491 6.51167 39.8838 6.113C39.9271 5.71433 39.9488 5.35467 39.9488 5.034V4.527H42.2888V5.073H42.1718C41.9811 5.073 41.7948 5.09467 41.6128 5.138C41.4308 5.17267 41.2704 5.25067 41.1318 5.372C40.9931 5.49333 40.8848 5.68833 40.8068 5.957C40.7288 6.23433 40.6378 6.53767 40.5338 6.867C40.4384 7.18767 40.3171 7.51267 40.1698 7.842L41.3788 9.129C41.4654 9.21567 41.5564 9.285 41.6518 9.337C41.7471 9.38033 41.8684 9.41067 42.0158 9.428C42.1631 9.44533 42.3538 9.454 42.5878 9.454H42.7048V10H40.6248L39.5458 8.856C39.3378 9.09 39.0994 9.30667 38.8308 9.506C38.5621 9.69667 38.2544 9.84833 37.9078 9.961C37.5698 10.0737 37.1798 10.13 36.7378 10.13ZM36.8548 9.402C37.3661 9.402 37.8038 9.30233 38.1678 9.103C38.5318 8.90367 38.8351 8.65233 39.0778 8.349L36.2048 5.268C35.9448 5.41533 35.7151 5.58867 35.5158 5.788C35.3251 5.97867 35.1778 6.20833 35.0738 6.477C34.9698 6.74567 34.9178 7.06633 34.9178 7.439C34.9178 7.75967 34.9611 8.04133 35.0478 8.284C35.1431 8.52667 35.2774 8.73033 35.4508 8.895C35.6241 9.05967 35.8278 9.18533 36.0618 9.272C36.3044 9.35867 36.5688 9.402 36.8548 9.402ZM36.8418 4.293C37.3531 4.06767 37.7301 3.81633 37.9728 3.539C38.2154 3.26167 38.3368 2.89767 38.3368 2.447C38.3368 2.213 38.2978 2.005 38.2198 1.823C38.1418 1.641 38.0118 1.498 37.8298 1.394C37.6564 1.28133 37.4224 1.225 37.1278 1.225C36.7464 1.225 36.4518 1.33767 36.2438 1.563C36.0358 1.78833 35.9318 2.08733 35.9318 2.46C35.9318 2.67667 35.9621 2.88033 36.0228 3.071C36.0834 3.253 36.1788 3.44367 36.3088 3.643C36.4474 3.83367 36.6251 4.05033 36.8418 4.293ZM46.6692 10V9.48L51.5442 1.368H48.7232C48.4718 1.368 48.2725 1.42 48.1252 1.524C47.9778 1.61933 47.8695 1.74933 47.8002 1.914C47.7308 2.07 47.6832 2.24333 47.6572 2.434L47.5922 2.993H46.9162L46.9812 0.717999H53.1432V1.251L48.2552 9.35H51.5312C51.7912 9.35 51.9948 9.30233 52.1422 9.207C52.2895 9.103 52.3978 8.973 52.4672 8.817C52.5452 8.65233 52.5928 8.47467 52.6102 8.284L52.6752 7.725H53.3512L53.2862 10H46.6692ZM0.700055 25V24.454H0.869055C1.05972 24.454 1.23305 24.4367 1.38905 24.402C1.55372 24.3587 1.68372 24.2763 1.77905 24.155C1.88305 24.025 1.93505 23.8343 1.93505 23.583V17.2C1.93505 16.9227 1.88739 16.719 1.79205 16.589C1.69672 16.459 1.56672 16.3723 1.40205 16.329C1.24605 16.2857 1.06839 16.264 0.869055 16.264H0.700055V15.718H7.25206L7.31706 17.993H6.64106L6.57605 17.434C6.55872 17.2433 6.50672 17.07 6.42005 16.914C6.34205 16.7493 6.22072 16.6193 6.05605 16.524C5.90005 16.42 5.69205 16.368 5.43205 16.368H3.24805V19.826H6.38105V20.463H3.24805V24.35H5.75705C6.03439 24.35 6.25539 24.3023 6.42005 24.207C6.59339 24.103 6.72339 23.973 6.81005 23.817C6.90539 23.6523 6.96606 23.4747 6.99205 23.284L7.08306 22.725H7.75906L7.66805 25H0.700055ZM8.66966 25V24.454H8.77366C8.973 24.454 9.15066 24.4323 9.30666 24.389C9.47133 24.3457 9.60133 24.259 9.69666 24.129C9.792 23.9903 9.83966 23.7867 9.83966 23.518V19.462C9.83966 19.202 9.792 19.0113 9.69666 18.89C9.60133 18.76 9.47566 18.6777 9.31966 18.643C9.16366 18.5997 8.99033 18.578 8.79966 18.578H8.73466V18.032H10.8407L11.0097 19.085H11.0747C11.2567 18.7557 11.4473 18.5087 11.6467 18.344C11.8547 18.1707 12.08 18.0537 12.3227 17.993C12.5653 17.9323 12.8253 17.902 13.1027 17.902C13.7873 17.902 14.3203 18.1057 14.7017 18.513C15.0917 18.9117 15.2867 19.5573 15.2867 20.45V23.518C15.2867 23.7867 15.3257 23.9903 15.4037 24.129C15.4903 24.259 15.6073 24.3457 15.7547 24.389C15.902 24.4323 16.071 24.454 16.2617 24.454H16.3267V25H14.0647V20.515C14.0647 19.9517 13.9563 19.514 13.7397 19.202C13.5317 18.89 13.1633 18.734 12.6347 18.734C12.2447 18.734 11.9327 18.8337 11.6987 19.033C11.4733 19.2237 11.3087 19.4793 11.2047 19.8C11.1093 20.1207 11.0617 20.4673 11.0617 20.84V23.583C11.0617 23.8343 11.1093 24.025 11.2047 24.155C11.3 24.2763 11.4257 24.3587 11.5817 24.402C11.7377 24.4367 11.911 24.454 12.1017 24.454H12.1667V25H8.66966ZM19.6876 28.12C18.7862 28.12 18.1102 27.951 17.6596 27.613C17.2089 27.2837 16.9836 26.82 16.9836 26.222C16.9836 25.884 17.0572 25.598 17.2046 25.364C17.3606 25.1387 17.5599 24.961 17.8026 24.831C18.0539 24.701 18.3226 24.61 18.6086 24.558C18.4352 24.48 18.2706 24.3543 18.1146 24.181C17.9672 23.999 17.8936 23.7693 17.8936 23.492C17.8936 23.232 17.9586 23.0067 18.0886 22.816C18.2272 22.6253 18.4439 22.4433 18.7386 22.27C18.3659 22.114 18.0756 21.8583 17.8676 21.503C17.6682 21.139 17.5686 20.7403 17.5686 20.307C17.5686 19.5617 17.7722 18.9767 18.1796 18.552C18.5869 18.1187 19.1979 17.902 20.0126 17.902C20.3246 17.902 20.6192 17.9453 20.8966 18.032C21.1739 18.1187 21.3732 18.2183 21.4946 18.331C21.5812 18.2357 21.6852 18.136 21.8066 18.032C21.9279 17.9193 22.0666 17.824 22.2226 17.746C22.3872 17.668 22.5649 17.629 22.7556 17.629C23.0156 17.629 23.2062 17.6983 23.3276 17.837C23.4576 17.967 23.5226 18.123 23.5226 18.305C23.5226 18.487 23.4662 18.6473 23.3536 18.786C23.2496 18.916 23.0762 18.981 22.8336 18.981C22.8336 18.8857 22.8032 18.7903 22.7426 18.695C22.6906 18.591 22.5779 18.539 22.4046 18.539C22.2919 18.539 22.1922 18.552 22.1056 18.578C22.0189 18.604 21.9322 18.643 21.8456 18.695C21.9929 18.877 22.1142 19.0937 22.2096 19.345C22.3049 19.5877 22.3526 19.8953 22.3526 20.268C22.3526 20.9093 22.1576 21.4423 21.7676 21.867C21.3862 22.2917 20.8012 22.504 20.0126 22.504C19.9086 22.504 19.7872 22.4997 19.6486 22.491C19.5186 22.4737 19.4102 22.4563 19.3236 22.439C19.1589 22.5257 19.0159 22.634 18.8946 22.764C18.7732 22.894 18.7126 23.0587 18.7126 23.258C18.7126 23.414 18.7602 23.5353 18.8556 23.622C18.9596 23.7087 19.1806 23.752 19.5186 23.752H20.9876C21.5076 23.752 21.9236 23.8387 22.2356 24.012C22.5476 24.1767 22.7729 24.4063 22.9116 24.701C23.0589 24.987 23.1326 25.3163 23.1326 25.689C23.1326 26.4343 22.8509 27.0237 22.2876 27.457C21.7329 27.899 20.8662 28.12 19.6876 28.12ZM19.7136 27.483C20.3376 27.483 20.8186 27.4137 21.1566 27.275C21.4946 27.145 21.7286 26.9587 21.8586 26.716C21.9972 26.482 22.0666 26.2133 22.0666 25.91C22.0666 25.5113 21.9539 25.2427 21.7286 25.104C21.5032 24.974 21.1739 24.909 20.7406 24.909H19.4666C19.2239 24.909 18.9942 24.9393 18.7776 25C18.5609 25.0693 18.3832 25.1907 18.2446 25.364C18.1059 25.5373 18.0366 25.7973 18.0366 26.144C18.0366 26.3953 18.0842 26.6207 18.1796 26.82C18.2749 27.028 18.4439 27.1883 18.6866 27.301C18.9292 27.4223 19.2716 27.483 19.7136 27.483ZM19.9736 21.88C20.2596 21.88 20.4849 21.8237 20.6496 21.711C20.8229 21.5983 20.9442 21.4207 21.0136 21.178C21.0916 20.9353 21.1306 20.6277 21.1306 20.255C21.1306 19.865 21.0916 19.5443 21.0136 19.293C20.9356 19.033 20.8099 18.8423 20.6366 18.721C20.4719 18.5997 20.2466 18.539 19.9606 18.539C19.6832 18.539 19.4579 18.604 19.2846 18.734C19.1112 18.8553 18.9856 19.046 18.9076 19.306C18.8296 19.5573 18.7906 19.878 18.7906 20.268C18.7906 20.632 18.8296 20.9353 18.9076 21.178C18.9942 21.412 19.1242 21.5897 19.2976 21.711C19.4709 21.8237 19.6962 21.88 19.9736 21.88ZM23.9787 25V24.454H24.1477C24.3384 24.454 24.5117 24.4367 24.6677 24.402C24.8324 24.3587 24.9624 24.2763 25.0577 24.155C25.1617 24.025 25.2137 23.8343 25.2137 23.583V19.462C25.2137 19.202 25.1617 19.0113 25.0577 18.89C24.9624 18.76 24.8324 18.6777 24.6677 18.643C24.5117 18.5997 24.3384 18.578 24.1477 18.578H24.1087V18.032H26.4357V23.518C26.4357 23.7867 26.4834 23.9903 26.5787 24.129C26.674 24.259 26.804 24.3457 26.9687 24.389C27.1334 24.4323 27.311 24.454 27.5017 24.454H27.6707V25H23.9787ZM25.7727 16.732C25.5647 16.732 25.387 16.6713 25.2397 16.55C25.101 16.4287 25.0317 16.2207 25.0317 15.926C25.0317 15.6227 25.101 15.4147 25.2397 15.302C25.387 15.1807 25.5647 15.12 25.7727 15.12C25.972 15.12 26.1454 15.1807 26.2927 15.302C26.44 15.4147 26.5137 15.6227 26.5137 15.926C26.5137 16.2207 26.44 16.4287 26.2927 16.55C26.1454 16.6713 25.972 16.732 25.7727 16.732ZM28.2078 25V24.454H28.3118C28.5111 24.454 28.6888 24.4323 28.8448 24.389C29.0094 24.3457 29.1394 24.259 29.2348 24.129C29.3301 23.9903 29.3778 23.7867 29.3778 23.518V19.462C29.3778 19.202 29.3301 19.0113 29.2348 18.89C29.1394 18.76 29.0138 18.6777 28.8578 18.643C28.7018 18.5997 28.5284 18.578 28.3378 18.578H28.2727V18.032H30.3788L30.5478 19.085H30.6128C30.7948 18.7557 30.9854 18.5087 31.1847 18.344C31.3928 18.1707 31.6181 18.0537 31.8608 17.993C32.1034 17.9323 32.3634 17.902 32.6408 17.902C33.3254 17.902 33.8584 18.1057 34.2398 18.513C34.6298 18.9117 34.8248 19.5573 34.8248 20.45V23.518C34.8248 23.7867 34.8638 23.9903 34.9418 24.129C35.0284 24.259 35.1454 24.3457 35.2928 24.389C35.4401 24.4323 35.6091 24.454 35.7998 24.454H35.8648V25H33.6028V20.515C33.6028 19.9517 33.4944 19.514 33.2778 19.202C33.0698 18.89 32.7014 18.734 32.1728 18.734C31.7828 18.734 31.4708 18.8337 31.2368 19.033C31.0114 19.2237 30.8468 19.4793 30.7428 19.8C30.6474 20.1207 30.5998 20.4673 30.5998 20.84V23.583C30.5998 23.8343 30.6474 24.025 30.7428 24.155C30.8381 24.2763 30.9638 24.3587 31.1198 24.402C31.2758 24.4367 31.4491 24.454 31.6398 24.454H31.7048V25H28.2078ZM39.9537 25.13C39.009 25.13 38.268 24.818 37.7307 24.194C37.202 23.57 36.9377 22.6947 36.9377 21.568C36.9377 20.3547 37.189 19.4403 37.6917 18.825C38.1943 18.2097 38.905 17.902 39.8237 17.902C40.6643 17.902 41.323 18.162 41.7997 18.682C42.285 19.202 42.5277 19.9777 42.5277 21.009V21.607H38.1987C38.216 22.2397 38.2983 22.7553 38.4457 23.154C38.593 23.5527 38.8053 23.8473 39.0827 24.038C39.3687 24.22 39.7197 24.311 40.1357 24.311C40.439 24.311 40.7077 24.2677 40.9417 24.181C41.1843 24.0943 41.3923 23.9817 41.5657 23.843C41.7477 23.7043 41.8907 23.557 41.9947 23.401C42.0553 23.427 42.1117 23.479 42.1637 23.557C42.2157 23.635 42.2417 23.7303 42.2417 23.843C42.2417 24.0163 42.1593 24.2027 41.9947 24.402C41.83 24.6013 41.5787 24.7747 41.2407 24.922C40.9027 25.0607 40.4737 25.13 39.9537 25.13ZM41.2147 20.905C41.2147 20.4457 41.167 20.0427 41.0717 19.696C40.985 19.3493 40.8377 19.0807 40.6297 18.89C40.4217 18.6993 40.1443 18.604 39.7977 18.604C39.477 18.604 39.204 18.695 38.9787 18.877C38.762 19.0503 38.5887 19.306 38.4587 19.644C38.3373 19.982 38.2593 20.4023 38.2247 20.905H41.2147ZM46.9107 25.13C45.966 25.13 45.225 24.818 44.6877 24.194C44.159 23.57 43.8947 22.6947 43.8947 21.568C43.8947 20.3547 44.146 19.4403 44.6487 18.825C45.1514 18.2097 45.862 17.902 46.7807 17.902C47.6214 17.902 48.28 18.162 48.7567 18.682C49.242 19.202 49.4847 19.9777 49.4847 21.009V21.607H45.1557C45.173 22.2397 45.2554 22.7553 45.4027 23.154C45.55 23.5527 45.7624 23.8473 46.0397 24.038C46.3257 24.22 46.6767 24.311 47.0927 24.311C47.396 24.311 47.6647 24.2677 47.8987 24.181C48.1414 24.0943 48.3494 23.9817 48.5227 23.843C48.7047 23.7043 48.8477 23.557 48.9517 23.401C49.0124 23.427 49.0687 23.479 49.1207 23.557C49.1727 23.635 49.1987 23.7303 49.1987 23.843C49.1987 24.0163 49.1164 24.2027 48.9517 24.402C48.787 24.6013 48.5357 24.7747 48.1977 24.922C47.8597 25.0607 47.4307 25.13 46.9107 25.13ZM48.1717 20.905C48.1717 20.4457 48.124 20.0427 48.0287 19.696C47.942 19.3493 47.7947 19.0807 47.5867 18.89C47.3787 18.6993 47.1014 18.604 46.7547 18.604C46.434 18.604 46.161 18.695 45.9357 18.877C45.719 19.0503 45.5457 19.306 45.4157 19.644C45.2944 19.982 45.2164 20.4023 45.1817 20.905H48.1717ZM50.5657 25V24.454H50.6047C50.8041 24.454 50.9817 24.4323 51.1377 24.389C51.3024 24.3457 51.4324 24.259 51.5277 24.129C51.6231 23.9903 51.6707 23.7867 51.6707 23.518V19.462C51.6707 19.202 51.6187 19.0113 51.5147 18.89C51.4194 18.76 51.2894 18.6777 51.1247 18.643C50.9687 18.5997 50.7954 18.578 50.6047 18.578H50.5657V18.032H52.5677L52.8147 19.319H52.8797C52.9924 19.059 53.1137 18.8207 53.2437 18.604C53.3737 18.3873 53.5471 18.2183 53.7637 18.097C53.9804 17.967 54.2794 17.902 54.6607 17.902C55.1374 17.902 55.4884 17.9843 55.7137 18.149C55.9477 18.3137 56.0647 18.5477 56.0647 18.851C56.0647 19.1197 55.9694 19.3407 55.7787 19.514C55.5967 19.6873 55.2891 19.774 54.8557 19.774C54.8557 19.5313 54.8341 19.3363 54.7907 19.189C54.7474 19.0417 54.6737 18.9333 54.5697 18.864C54.4744 18.7947 54.3401 18.76 54.1667 18.76C53.9241 18.76 53.7204 18.8553 53.5557 19.046C53.3911 19.2367 53.2611 19.4793 53.1657 19.774C53.0704 20.0687 53.0011 20.3763 52.9577 20.697C52.9144 21.009 52.8927 21.2907 52.8927 21.542V23.583C52.8927 23.8343 52.9404 24.025 53.0357 24.155C53.1397 24.2763 53.2697 24.3587 53.4257 24.402C53.5904 24.4367 53.7681 24.454 53.9587 24.454H54.3227V25H50.5657ZM56.5549 25V24.454H56.7239C56.9145 24.454 57.0879 24.4367 57.2439 24.402C57.4085 24.3587 57.5385 24.2763 57.6339 24.155C57.7379 24.025 57.7899 23.8343 57.7899 23.583V19.462C57.7899 19.202 57.7379 19.0113 57.6339 18.89C57.5385 18.76 57.4085 18.6777 57.2439 18.643C57.0879 18.5997 56.9145 18.578 56.7239 18.578H56.6849V18.032H59.0119V23.518C59.0119 23.7867 59.0595 23.9903 59.1549 24.129C59.2502 24.259 59.3802 24.3457 59.5449 24.389C59.7095 24.4323 59.8872 24.454 60.0779 24.454H60.2469V25H56.5549ZM58.3489 16.732C58.1409 16.732 57.9632 16.6713 57.8159 16.55C57.6772 16.4287 57.6079 16.2207 57.6079 15.926C57.6079 15.6227 57.6772 15.4147 57.8159 15.302C57.9632 15.1807 58.1409 15.12 58.3489 15.12C58.5482 15.12 58.7215 15.1807 58.8689 15.302C59.0162 15.4147 59.0899 15.6227 59.0899 15.926C59.0899 16.2207 59.0162 16.4287 58.8689 16.55C58.7215 16.6713 58.5482 16.732 58.3489 16.732ZM60.7839 25V24.454H60.8879C61.0873 24.454 61.2649 24.4323 61.4209 24.389C61.5856 24.3457 61.7156 24.259 61.8109 24.129C61.9063 23.9903 61.9539 23.7867 61.9539 23.518V19.462C61.9539 19.202 61.9063 19.0113 61.8109 18.89C61.7156 18.76 61.5899 18.6777 61.4339 18.643C61.2779 18.5997 61.1046 18.578 60.9139 18.578H60.8489V18.032H62.9549L63.1239 19.085H63.1889C63.3709 18.7557 63.5616 18.5087 63.7609 18.344C63.9689 18.1707 64.1943 18.0537 64.4369 17.993C64.6796 17.9323 64.9396 17.902 65.2169 17.902C65.9016 17.902 66.4346 18.1057 66.8159 18.513C67.2059 18.9117 67.4009 19.5573 67.4009 20.45V23.518C67.4009 23.7867 67.4399 23.9903 67.5179 24.129C67.6046 24.259 67.7216 24.3457 67.8689 24.389C68.0163 24.4323 68.1853 24.454 68.3759 24.454H68.4409V25H66.1789V20.515C66.1789 19.9517 66.0706 19.514 65.8539 19.202C65.6459 18.89 65.2776 18.734 64.7489 18.734C64.3589 18.734 64.0469 18.8337 63.8129 19.033C63.5876 19.2237 63.4229 19.4793 63.3189 19.8C63.2236 20.1207 63.1759 20.4673 63.1759 20.84V23.583C63.1759 23.8343 63.2236 24.025 63.3189 24.155C63.4143 24.2763 63.5399 24.3587 63.6959 24.402C63.8519 24.4367 64.0253 24.454 64.2159 24.454H64.2809V25H60.7839ZM71.8018 28.12C70.9005 28.12 70.2245 27.951 69.7738 27.613C69.3232 27.2837 69.0978 26.82 69.0978 26.222C69.0978 25.884 69.1715 25.598 69.3188 25.364C69.4748 25.1387 69.6742 24.961 69.9168 24.831C70.1682 24.701 70.4368 24.61 70.7228 24.558C70.5495 24.48 70.3848 24.3543 70.2288 24.181C70.0815 23.999 70.0078 23.7693 70.0078 23.492C70.0078 23.232 70.0728 23.0067 70.2028 22.816C70.3415 22.6253 70.5582 22.4433 70.8528 22.27C70.4802 22.114 70.1898 21.8583 69.9818 21.503C69.7825 21.139 69.6828 20.7403 69.6828 20.307C69.6828 19.5617 69.8865 18.9767 70.2938 18.552C70.7012 18.1187 71.3122 17.902 72.1268 17.902C72.4388 17.902 72.7335 17.9453 73.0108 18.032C73.2882 18.1187 73.4875 18.2183 73.6088 18.331C73.6955 18.2357 73.7995 18.136 73.9208 18.032C74.0422 17.9193 74.1808 17.824 74.3368 17.746C74.5015 17.668 74.6792 17.629 74.8698 17.629C75.1298 17.629 75.3205 17.6983 75.4418 17.837C75.5718 17.967 75.6368 18.123 75.6368 18.305C75.6368 18.487 75.5805 18.6473 75.4678 18.786C75.3638 18.916 75.1905 18.981 74.9478 18.981C74.9478 18.8857 74.9175 18.7903 74.8568 18.695C74.8048 18.591 74.6922 18.539 74.5188 18.539C74.4062 18.539 74.3065 18.552 74.2198 18.578C74.1332 18.604 74.0465 18.643 73.9598 18.695C74.1072 18.877 74.2285 19.0937 74.3238 19.345C74.4192 19.5877 74.4668 19.8953 74.4668 20.268C74.4668 20.9093 74.2718 21.4423 73.8818 21.867C73.5005 22.2917 72.9155 22.504 72.1268 22.504C72.0228 22.504 71.9015 22.4997 71.7628 22.491C71.6328 22.4737 71.5245 22.4563 71.4378 22.439C71.2732 22.5257 71.1302 22.634 71.0088 22.764C70.8875 22.894 70.8268 23.0587 70.8268 23.258C70.8268 23.414 70.8745 23.5353 70.9698 23.622C71.0738 23.7087 71.2948 23.752 71.6328 23.752H73.1018C73.6218 23.752 74.0378 23.8387 74.3498 24.012C74.6618 24.1767 74.8872 24.4063 75.0258 24.701C75.1732 24.987 75.2468 25.3163 75.2468 25.689C75.2468 26.4343 74.9652 27.0237 74.4018 27.457C73.8472 27.899 72.9805 28.12 71.8018 28.12ZM71.8278 27.483C72.4518 27.483 72.9328 27.4137 73.2708 27.275C73.6088 27.145 73.8428 26.9587 73.9728 26.716C74.1115 26.482 74.1808 26.2133 74.1808 25.91C74.1808 25.5113 74.0682 25.2427 73.8428 25.104C73.6175 24.974 73.2882 24.909 72.8548 24.909H71.5808C71.3382 24.909 71.1085 24.9393 70.8918 25C70.6752 25.0693 70.4975 25.1907 70.3588 25.364C70.2202 25.5373 70.1508 25.7973 70.1508 26.144C70.1508 26.3953 70.1985 26.6207 70.2938 26.82C70.3892 27.028 70.5582 27.1883 70.8008 27.301C71.0435 27.4223 71.3858 27.483 71.8278 27.483ZM72.0878 21.88C72.3738 21.88 72.5992 21.8237 72.7638 21.711C72.9372 21.5983 73.0585 21.4207 73.1278 21.178C73.2058 20.9353 73.2448 20.6277 73.2448 20.255C73.2448 19.865 73.2058 19.5443 73.1278 19.293C73.0498 19.033 72.9242 18.8423 72.7508 18.721C72.5862 18.5997 72.3608 18.539 72.0748 18.539C71.7975 18.539 71.5722 18.604 71.3988 18.734C71.2255 18.8553 71.0998 19.046 71.0218 19.306C70.9438 19.5573 70.9048 19.878 70.9048 20.268C70.9048 20.632 70.9438 20.9353 71.0218 21.178C71.1085 21.412 71.2385 21.5897 71.4118 21.711C71.5852 21.8237 71.8105 21.88 72.0878 21.88Z" fill="black"/>
</svg>
